<svg data-v-fde0c5aa="" xmlns="http://www.w3.org/2000/svg" viewBox="0 0 186 60" class="font"><!----><defs data-v-fde0c5aa=""><!----></defs><!----><defs data-v-fde0c5aa=""><!----></defs><g data-v-fde0c5aa="" id="8d17ad31-079a-4d7b-8908-7f8696c8ba81" fill="" transform="matrix(2.9356062090703463,0,0,2.9356062090703463,-1.438447070440592,1.2604153251857984)"><path d="M8.69 5.68C8.69 5.84 8.54 5.96 8.36 5.96L5.68 5.96L5.68 15.47C5.68 15.65 5.56 15.81 5.42 15.81L3.77 15.81C3.63 15.81 3.50 15.65 3.50 15.47L3.50 5.96L0.77 5.96C0.62 5.96 0.49 5.84 0.49 5.68L0.49 4.05C0.49 3.89 0.62 3.78 0.77 3.78L8.36 3.78C8.54 3.78 8.69 3.89 8.69 4.05ZM16.90 11.16C16.90 11.00 16.77 10.89 16.62 10.89L15.69 10.89L13.99 4.05L13.97 3.98C13.93 3.88 13.83 3.81 13.72 3.81L11.89 3.81C11.77 3.81 11.68 3.88 11.63 3.98L11.62 4.06L8.78 15.41C8.78 15.43 8.78 15.44 8.76 15.44L8.76 15.50C8.76 15.67 8.89 15.79 9.03 15.79L10.72 15.79C10.84 15.79 10.95 15.71 10.98 15.60C10.98 15.58 10.99 15.57 10.99 15.57L11.61 13.06L14.00 13.06L14.62 15.55L14.63 15.60C14.67 15.71 14.77 15.79 14.88 15.79L16.58 15.79C16.73 15.79 16.84 15.67 16.84 15.50L16.84 15.47L16.83 15.40L16.24 13.06L16.62 13.06C16.77 13.06 16.90 12.95 16.90 12.80ZM12.15 10.89L12.81 8.30L13.45 10.89ZM26.50 12.28C26.50 12.38 26.49 13.22 25.96 14.07C25.47 14.88 24.46 15.83 22.40 15.83C20.78 15.83 19.50 15.15 18.82 13.93C18.49 13.34 18.37 12.77 18.33 12.40C18.33 12.38 18.31 12.35 18.31 12.32C18.31 12.18 18.42 12.05 18.56 12.04L20.29 12.04C20.40 12.05 20.48 12.12 20.51 12.24L20.51 12.25C20.51 12.26 20.52 12.28 20.52 12.29C20.55 12.46 20.62 12.70 20.76 12.91C21.06 13.40 21.60 13.65 22.40 13.65C23.25 13.65 23.80 13.41 24.09 12.94C24.29 12.61 24.32 12.26 24.32 12.26C24.32 11.87 24.22 11.41 23.49 11.12C22.96 10.89 22.40 10.88 22.40 10.88C22.30 10.88 21.41 10.86 20.48 10.50C19.07 9.93 18.30 8.81 18.30 7.34C18.30 7.20 18.33 5.89 19.35 4.87C20.08 4.13 21.11 3.75 22.40 3.75C23.23 3.75 24.42 3.93 25.33 4.86C26.21 5.75 26.43 6.89 26.49 7.45L26.49 7.48C26.49 7.64 26.38 7.77 26.22 7.77L24.53 7.77C24.42 7.76 24.32 7.66 24.29 7.55L24.29 7.50C24.25 7.31 24.18 7.03 24.04 6.75C23.84 6.40 23.46 5.94 22.40 5.94C21.71 5.94 21.21 6.09 20.89 6.41C20.51 6.79 20.48 7.34 20.48 7.34C20.48 7.73 20.58 8.18 21.31 8.47C21.84 8.68 22.40 8.69 22.40 8.69C22.50 8.69 23.39 8.71 24.32 9.09C25.73 9.67 26.50 10.81 26.50 12.28ZM36.11 15.53C36.11 15.68 35.99 15.81 35.84 15.81L33.84 15.81C33.75 15.81 33.68 15.78 33.63 15.71L33.61 15.68L30.23 10.92L30.23 15.53C30.23 15.68 30.11 15.81 29.96 15.81L28.32 15.81C28.17 15.81 28.04 15.68 28.04 15.53L28.04 8.69L29.33 8.69L28.07 4.20L28.04 4.09L28.04 4.06C28.04 3.91 28.17 3.78 28.32 3.78L30.03 3.78C30.14 3.78 30.25 3.86 30.28 3.98L31.39 7.92L33.60 3.93C33.66 3.84 33.74 3.78 33.85 3.78L35.71 3.78C35.87 3.78 35.99 3.91 35.99 4.06C35.99 4.10 35.98 4.14 35.97 4.19L35.94 4.23L32.52 10.37L36.04 15.33L36.08 15.37C36.09 15.41 36.11 15.47 36.11 15.53ZM42.03 5.95L42.03 13.61L43.86 13.61C44.06 13.61 44.21 13.73 44.21 13.89L44.21 15.53C44.21 15.68 44.06 15.81 43.86 15.81L37.93 15.81C37.77 15.81 37.65 15.68 37.65 15.53L37.65 13.89C37.65 13.73 37.77 13.61 37.93 13.61L39.83 13.61L39.83 5.95L37.93 5.95C37.77 5.95 37.65 5.84 37.65 5.68L37.65 4.05C37.65 3.89 37.77 3.77 37.93 3.77L43.86 3.77C44.06 3.77 44.21 3.89 44.21 4.05L44.21 5.68C44.21 5.84 44.06 5.95 43.86 5.95ZM54.10 5.67C54.10 5.82 53.97 5.95 53.83 5.95L49.32 5.95L51.60 8.69L52.39 8.69C52.58 8.69 52.72 8.81 52.72 8.96L52.72 10.60C52.72 10.75 52.58 10.88 52.39 10.88L48.08 10.88L48.08 15.51C48.08 15.67 47.96 15.81 47.81 15.81L46.17 15.81C46.02 15.81 45.89 15.67 45.89 15.51L45.89 8.69L48.75 8.69L45.89 5.25L45.89 4.06C45.89 3.89 46.02 3.77 46.17 3.77L53.83 3.77C53.97 3.77 54.10 3.89 54.10 4.06ZM63.85 4.06C63.85 4.10 63.85 4.13 63.84 4.17L63.81 4.21L60.77 10.05L60.31 10.96L57.88 15.62L57.86 15.67C57.86 15.68 57.86 15.68 57.85 15.68C57.81 15.75 57.72 15.81 57.62 15.81L55.78 15.81C55.62 15.81 55.51 15.68 55.51 15.51C55.51 15.48 55.51 15.46 55.52 15.43L55.57 15.34L58.39 9.91L55.52 4.20C55.51 4.14 55.50 4.10 55.50 4.06C55.50 4.03 55.50 3.99 55.51 3.96L55.55 3.88C55.61 3.81 55.68 3.77 55.78 3.77L57.60 3.77C57.69 3.77 57.79 3.82 57.83 3.91L59.64 7.52L61.49 3.95C61.50 3.93 61.50 3.92 61.50 3.92L61.53 3.88C61.57 3.81 61.66 3.77 61.74 3.77L63.59 3.77C63.74 3.77 63.85 3.91 63.85 4.06Z"></path></g><!----><!----></svg>